<ttFont>
<head>
    <!-- Most of this table will be recalculated by the compiler -->
    <tableVersion value="1.0"/>
    <fontRevision value="0.79999"/>
    <checkSumAdjustment value="0xce973143"/>
    <magicNumber value="0x5f0f3cf5"/>
    <flags value="00000000 00000011"/>
    <unitsPerEm value="1024"/>
    <created value="Thu Jun 19 22:22:21 2014"/>
    <modified value="Tue May  2 07:24:59 2017"/>
    <xMin value="-14"/>
    <yMin value="-224"/>
    <xMax value="685"/>
    <yMax value="694"/>
    <macStyle value="00000000 00000000"/>
    <lowestRecPPEM value="7"/>
    <fontDirectionHint value="2"/>
    <indexToLocFormat value="0"/>
    <glyphDataFormat value="0"/>
  </head>
    <TTGlyph name=".notdef" xMin="51" yMin="0" xMax="461" yMax="494">
      <contour>
        <pt x="461" y="494" on="1"/>
        <pt x="461" y="0" on="1"/>
        <pt x="51" y="0" on="1"/>
        <pt x="51" y="494" on="1"/>
      </contour>
      <contour>
        <pt x="410" y="443" on="1"/>
        <pt x="102" y="443" on="1"/>
        <pt x="102" y="51" on="1"/>
        <pt x="410" y="51" on="1"/>
      </contour>
    </TTGlyph>
    <TTGlyph name="A" xMin="-14" yMin="-3" xMax="632" yMax="663">
      <contour>
        <pt x="59" y="59" on="0"/>
        <pt x="85" y="117" on="0"/>
        <pt x="165" y="317" on="0"/>
        <pt x="227" y="478" on="0"/>
        <pt x="288" y="634" on="1"/>
        <pt x="292" y="642" on="0"/>
        <pt x="319" y="663" on="0"/>
        <pt x="326" y="663" on="1"/>
        <pt x="328" y="663" on="0"/>
        <pt x="330" y="661" on="0"/>
        <pt x="332" y="660" on="1"/>
        <pt x="559" y="64" on="0"/>
        <pt x="561" y="60" on="1"/>
        <pt x="567" y="45" on="0"/>
        <pt x="617" y="26" on="0"/>
        <pt x="629" y="26" on="1"/>
        <pt x="632" y="21" on="0"/>
        <pt x="632" y="2" on="0"/>
        <pt x="631" y="-3" on="1"/>
        <pt x="603" y="-1" on="0"/>
        <pt x="548" y="2" on="0"/>
        <pt x="521" y="2" on="1"/>
        <pt x="494" y="2" on="0"/>
        <pt x="436" y="-1" on="0"/>
        <pt x="405" y="-3" on="1"/>
        <pt x="401" y="1" on="0"/>
        <pt x="402" y="22" on="0"/>
        <pt x="406" y="26" on="1"/>
        <pt x="417" y="26" on="0"/>
        <pt x="456" y="34" on="0"/>
        <pt x="462" y="39" on="1"/>
        <pt x="466" y="43" on="0"/>
        <pt x="466" y="53" on="1"/>
        <pt x="466" y="66" on="0"/>
        <pt x="436" y="153" on="0"/>
        <pt x="403" y="236" on="0"/>
        <pt x="398" y="248" on="1"/>
        <pt x="398" y="249" on="0"/>
        <pt x="394" y="252" on="0"/>
        <pt x="392" y="252" on="1"/>
        <pt x="376" y="253" on="0"/>
        <pt x="315" y="253" on="0"/>
        <pt x="293" y="253" on="1"/>
        <pt x="230" y="253" on="0"/>
        <pt x="185" y="250" on="1"/>
        <pt x="183" y="250" on="0"/>
        <pt x="180" y="247" on="0"/>
        <pt x="180" y="247" on="1"/>
        <pt x="175" y="235" on="0"/>
        <pt x="149" y="164" on="0"/>
        <pt x="135" y="125" on="1"/>
        <pt x="121" y="84" on="0"/>
        <pt x="121" y="54" on="1"/>
        <pt x="121" y="39" on="0"/>
        <pt x="173" y="26" on="0"/>
        <pt x="190" y="26" on="1"/>
        <pt x="192" y="24" on="0"/>
        <pt x="194" y="2" on="0"/>
        <pt x="192" y="-3" on="1"/>
        <pt x="166" y="-2" on="0"/>
        <pt x="121" y="2" on="0"/>
        <pt x="95" y="2" on="1"/>
        <pt x="68" y="2" on="0"/>
        <pt x="18" y="-2" on="0"/>
        <pt x="-12" y="-3" on="1"/>
        <pt x="-14" y="-1" on="0"/>
        <pt x="-14" y="21" on="0"/>
        <pt x="-12" y="26" on="1"/>
        <pt x="1" y="26" on="0"/>
        <pt x="41" y="36" on="0"/>
        <pt x="48" y="45" on="1"/>
      </contour>
      <contour>
        <pt x="199" y="297" on="0"/>
        <pt x="200" y="294" on="0"/>
        <pt x="201" y="294" on="1"/>
        <pt x="253" y="292" on="0"/>
        <pt x="292" y="292" on="1"/>
        <pt x="329" y="292" on="0"/>
        <pt x="376" y="295" on="1"/>
        <pt x="377" y="295" on="0"/>
        <pt x="379" y="299" on="0"/>
        <pt x="379" y="300" on="1"/>
        <pt x="291" y="542" on="1"/>
        <pt x="199" y="298" on="1"/>
      </contour>
    </TTGlyph>
    <TTGlyph name="E" xMin="99" yMin="0" xMax="516" yMax="658">
      <contour>
        <pt x="222" y="658" on="0"/>
        <pt x="407" y="658" on="0"/>
        <pt x="495" y="658" on="1"/>
        <pt x="495" y="633" on="0"/>
        <pt x="495" y="616" on="0"/>
        <pt x="495" y="615" on="1"/>
        <pt x="482" y="615" on="0"/>
        <pt x="429" y="615" on="0"/>
        <pt x="417" y="615" on="1"/>
        <pt x="411" y="615" on="0"/>
        <pt x="404" y="615" on="0"/>
        <pt x="402" y="615" on="1"/>
        <pt x="392" y="615" on="0"/>
        <pt x="369" y="615" on="0"/>
        <pt x="346" y="615" on="1"/>
        <pt x="260" y="615" on="1"/>
        <pt x="243" y="615" on="0"/>
        <pt x="196" y="615" on="0"/>
        <pt x="186" y="615" on="1"/>
        <pt x="186" y="596" on="0"/>
        <pt x="186" y="555" on="0"/>
        <pt x="186" y="535" on="1"/>
        <pt x="186" y="351" on="1"/>
        <pt x="190" y="351" on="0"/>
        <pt x="213" y="351" on="0"/>
        <pt x="229" y="351" on="1"/>
        <pt x="282" y="351" on="1"/>
        <pt x="318" y="351" on="0"/>
        <pt x="358" y="351" on="0"/>
        <pt x="375" y="351" on="0"/>
        <pt x="382" y="351" on="1"/>
        <pt x="385" y="351" on="0"/>
        <pt x="394" y="351" on="0"/>
        <pt x="397" y="351" on="1"/>
        <pt x="413" y="351" on="0"/>
        <pt x="470" y="351" on="0"/>
        <pt x="484" y="351" on="1"/>
        <pt x="484" y="312" on="1"/>
        <pt x="470" y="312" on="0"/>
        <pt x="412" y="312" on="0"/>
        <pt x="398" y="312" on="1"/>
        <pt x="393" y="312" on="0"/>
        <pt x="384" y="312" on="0"/>
        <pt x="382" y="312" on="1"/>
        <pt x="373" y="312" on="0"/>
        <pt x="377" y="312" on="0"/>
        <pt x="394" y="312" on="1"/>
        <pt x="383" y="312" on="0"/>
        <pt x="297" y="312" on="0"/>
        <pt x="258" y="312" on="1"/>
        <pt x="235" y="312" on="0"/>
        <pt x="193" y="312" on="0"/>
        <pt x="186" y="312" on="1"/>
        <pt x="186" y="113" on="1"/>
        <pt x="186" y="98" on="0"/>
        <pt x="186" y="56" on="0"/>
        <pt x="186" y="41" on="1"/>
        <pt x="200" y="41" on="0"/>
        <pt x="236" y="41" on="0"/>
        <pt x="263" y="41" on="1"/>
        <pt x="311" y="41" on="1"/>
        <pt x="332" y="41" on="0"/>
        <pt x="351" y="41" on="0"/>
        <pt x="362" y="41" on="1"/>
        <pt x="378" y="41" on="0"/>
        <pt x="383" y="41" on="0"/>
        <pt x="390" y="41" on="1"/>
        <pt x="393" y="41" on="0"/>
        <pt x="409" y="41" on="0"/>
        <pt x="419" y="41" on="1"/>
        <pt x="437" y="41" on="0"/>
        <pt x="501" y="41" on="0"/>
        <pt x="516" y="41" on="1"/>
        <pt x="515" y="35" on="0"/>
        <pt x="515" y="8" on="0"/>
        <pt x="515" y="0" on="1"/>
        <pt x="430" y="0" on="0"/>
        <pt x="243" y="0" on="0"/>
        <pt x="144" y="0" on="1"/>
        <pt x="118" y="0" on="0"/>
        <pt x="100" y="0" on="0"/>
        <pt x="99" y="0" on="1"/>
        <pt x="99" y="5" on="0"/>
        <pt x="99" y="32" on="0"/>
        <pt x="99" y="46" on="1"/>
        <pt x="99" y="47" on="0"/>
        <pt x="99" y="55" on="0"/>
        <pt x="99" y="62" on="1"/>
        <pt x="99" y="76" on="0"/>
        <pt x="99" y="114" on="0"/>
        <pt x="99" y="136" on="1"/>
        <pt x="99" y="513" on="1"/>
        <pt x="99" y="535" on="0"/>
        <pt x="99" y="573" on="0"/>
        <pt x="99" y="587" on="1"/>
        <pt x="99" y="592" on="0"/>
        <pt x="99" y="599" on="0"/>
        <pt x="99" y="603" on="0"/>
        <pt x="99" y="603" on="1"/>
        <pt x="99" y="614" on="0"/>
        <pt x="99" y="650" on="0"/>
        <pt x="99" y="658" on="1"/>
        <pt x="100" y="658" on="0"/>
        <pt x="118" y="658" on="0"/>
        <pt x="143" y="658" on="1"/>
      </contour>
    </TTGlyph>
    <TTGlyph name="F" xMin="41" yMin="-3" xMax="514" yMax="664">
      <contour>
        <pt x="208" y="657" on="0"/>
        <pt x="429" y="664" on="0"/>
        <pt x="485" y="664" on="1"/>
        <pt x="489" y="635" on="0"/>
        <pt x="512" y="540" on="0"/>
        <pt x="514" y="528" on="1"/>
        <pt x="509" y="523" on="0"/>
        <pt x="496" y="523" on="1"/>
        <pt x="483" y="523" on="0"/>
        <pt x="482" y="530" on="1"/>
        <pt x="467" y="586" on="0"/>
        <pt x="411" y="624" on="0"/>
        <pt x="366" y="624" on="1"/>
        <pt x="280" y="624" on="1"/>
        <pt x="260" y="624" on="0"/>
        <pt x="213" y="619" on="0"/>
        <pt x="211" y="613" on="1"/>
        <pt x="206" y="597" on="0"/>
        <pt x="206" y="542" on="1"/>
        <pt x="206" y="355" on="1"/>
        <pt x="206" y="349" on="0"/>
        <pt x="249" y="349" on="1"/>
        <pt x="302" y="349" on="1"/>
        <pt x="352" y="349" on="0"/>
        <pt x="389" y="358" on="0"/>
        <pt x="402" y="382" on="0"/>
        <pt x="412" y="421" on="1"/>
        <pt x="413" y="428" on="0"/>
        <pt x="427" y="428" on="1"/>
        <pt x="439" y="428" on="0"/>
        <pt x="444" y="423" on="1"/>
        <pt x="444" y="234" on="1"/>
        <pt x="440" y="230" on="0"/>
        <pt x="428" y="230" on="1"/>
        <pt x="415" y="230" on="0"/>
        <pt x="412" y="238" on="1"/>
        <pt x="402" y="277" on="0"/>
        <pt x="392" y="299" on="0"/>
        <pt x="384" y="304" on="1"/>
        <pt x="371" y="312" on="0"/>
        <pt x="278" y="312" on="1"/>
        <pt x="246" y="312" on="0"/>
        <pt x="206" y="309" on="0"/>
        <pt x="206" y="303" on="1"/>
        <pt x="206" y="116" on="1"/>
        <pt x="206" y="58" on="0"/>
        <pt x="211" y="42" on="1"/>
        <pt x="213" y="35" on="0"/>
        <pt x="274" y="26" on="0"/>
        <pt x="290" y="26" on="1"/>
        <pt x="293" y="22" on="0"/>
        <pt x="294" y="1" on="0"/>
        <pt x="290" y="-3" on="1"/>
        <pt x="188" y="2" on="0"/>
        <pt x="163" y="2" on="1"/>
        <pt x="139" y="2" on="0"/>
        <pt x="64" y="-3" on="0"/>
        <pt x="45" y="-3" on="1"/>
        <pt x="41" y="1" on="0"/>
        <pt x="42" y="22" on="0"/>
        <pt x="45" y="26" on="1"/>
        <pt x="60" y="26" on="0"/>
        <pt x="112" y="35" on="0"/>
        <pt x="114" y="42" on="1"/>
        <pt x="119" y="58" on="0"/>
        <pt x="119" y="116" on="1"/>
        <pt x="119" y="543" on="1"/>
        <pt x="119" y="601" on="0"/>
        <pt x="114" y="617" on="1"/>
        <pt x="112" y="624" on="0"/>
        <pt x="60" y="633" on="0"/>
        <pt x="45" y="633" on="1"/>
        <pt x="42" y="637" on="0"/>
        <pt x="41" y="658" on="0"/>
        <pt x="45" y="662" on="1"/>
        <pt x="75" y="660" on="0"/>
        <pt x="134" y="657" on="0"/>
        <pt x="163" y="657" on="1"/>
      </contour>
    </TTGlyph>
    <TTGlyph name="H" xMin="41" yMin="-3" xMax="685" yMax="662">
      <contour>
        <pt x="192" y="657" on="0"/>
        <pt x="250" y="660" on="0"/>
        <pt x="280" y="662" on="1"/>
        <pt x="284" y="658" on="0"/>
        <pt x="283" y="634" on="0"/>
        <pt x="280" y="630" on="1"/>
        <pt x="265" y="630" on="0"/>
        <pt x="213" y="621" on="0"/>
        <pt x="211" y="614" on="1"/>
        <pt x="206" y="598" on="0"/>
        <pt x="206" y="540" on="1"/>
        <pt x="206" y="365" on="1"/>
        <pt x="206" y="364" on="0"/>
        <pt x="208" y="362" on="0"/>
        <pt x="208" y="362" on="1"/>
        <pt x="245" y="361" on="0"/>
        <pt x="324" y="359" on="0"/>
        <pt x="365" y="359" on="1"/>
        <pt x="383" y="359" on="0"/>
        <pt x="518" y="362" on="1"/>
        <pt x="518" y="362" on="0"/>
        <pt x="520" y="364" on="0"/>
        <pt x="520" y="366" on="1"/>
        <pt x="520" y="540" on="1"/>
        <pt x="520" y="598" on="0"/>
        <pt x="515" y="614" on="1"/>
        <pt x="513" y="621" on="0"/>
        <pt x="461" y="630" on="0"/>
        <pt x="446" y="630" on="1"/>
        <pt x="443" y="634" on="0"/>
        <pt x="442" y="658" on="0"/>
        <pt x="446" y="662" on="1"/>
        <pt x="476" y="660" on="0"/>
        <pt x="535" y="657" on="0"/>
        <pt x="564" y="657" on="1"/>
        <pt x="593" y="657" on="0"/>
        <pt x="651" y="660" on="0"/>
        <pt x="681" y="662" on="1"/>
        <pt x="685" y="658" on="0"/>
        <pt x="684" y="634" on="0"/>
        <pt x="681" y="630" on="1"/>
        <pt x="666" y="630" on="0"/>
        <pt x="614" y="621" on="0"/>
        <pt x="612" y="614" on="1"/>
        <pt x="607" y="598" on="0"/>
        <pt x="607" y="540" on="1"/>
        <pt x="607" y="119" on="1"/>
        <pt x="607" y="61" on="0"/>
        <pt x="612" y="45" on="1"/>
        <pt x="614" y="38" on="0"/>
        <pt x="666" y="29" on="0"/>
        <pt x="681" y="29" on="1"/>
        <pt x="684" y="25" on="0"/>
        <pt x="685" y="1" on="0"/>
        <pt x="681" y="-3" on="1"/>
        <pt x="651" y="-1" on="0"/>
        <pt x="593" y="2" on="0"/>
        <pt x="564" y="2" on="1"/>
        <pt x="535" y="2" on="0"/>
        <pt x="476" y="-1" on="0"/>
        <pt x="446" y="-3" on="1"/>
        <pt x="442" y="1" on="0"/>
        <pt x="443" y="25" on="0"/>
        <pt x="446" y="29" on="1"/>
        <pt x="461" y="29" on="0"/>
        <pt x="513" y="38" on="0"/>
        <pt x="515" y="45" on="1"/>
        <pt x="520" y="61" on="0"/>
        <pt x="520" y="119" on="1"/>
        <pt x="520" y="317" on="1"/>
        <pt x="520" y="319" on="0"/>
        <pt x="518" y="321" on="0"/>
        <pt x="518" y="321" on="1"/>
        <pt x="481" y="322" on="0"/>
        <pt x="404" y="325" on="0"/>
        <pt x="365" y="325" on="1"/>
        <pt x="219" y="325" on="0"/>
        <pt x="206" y="317" on="0"/>
        <pt x="206" y="317" on="1"/>
        <pt x="206" y="119" on="1"/>
        <pt x="206" y="61" on="0"/>
        <pt x="211" y="45" on="1"/>
        <pt x="213" y="38" on="0"/>
        <pt x="265" y="29" on="0"/>
        <pt x="280" y="29" on="1"/>
        <pt x="283" y="25" on="0"/>
        <pt x="284" y="1" on="0"/>
        <pt x="280" y="-3" on="1"/>
        <pt x="250" y="-1" on="0"/>
        <pt x="192" y="2" on="0"/>
        <pt x="163" y="2" on="1"/>
        <pt x="134" y="2" on="0"/>
        <pt x="75" y="-1" on="0"/>
        <pt x="45" y="-3" on="1"/>
        <pt x="41" y="1" on="0"/>
        <pt x="42" y="25" on="0"/>
        <pt x="45" y="29" on="1"/>
        <pt x="60" y="29" on="0"/>
        <pt x="112" y="38" on="0"/>
        <pt x="114" y="45" on="1"/>
        <pt x="119" y="61" on="0"/>
        <pt x="119" y="119" on="1"/>
        <pt x="119" y="540" on="1"/>
        <pt x="119" y="598" on="0"/>
        <pt x="114" y="614" on="1"/>
        <pt x="112" y="621" on="0"/>
        <pt x="60" y="630" on="0"/>
        <pt x="45" y="630" on="1"/>
        <pt x="42" y="634" on="0"/>
        <pt x="41" y="658" on="0"/>
        <pt x="45" y="662" on="1"/>
        <pt x="75" y="660" on="0"/>
        <pt x="134" y="657" on="0"/>
        <pt x="163" y="657" on="1"/>
      </contour>
    </TTGlyph>
    <TTGlyph name="H.001" xMin="41" yMin="-3" xMax="685" yMax="662">
      <contour>
        <pt x="192" y="657" on="0"/>
        <pt x="250" y="660" on="0"/>
        <pt x="280" y="662" on="1"/>
        <pt x="284" y="658" on="0"/>
        <pt x="283" y="634" on="0"/>
        <pt x="280" y="630" on="1"/>
        <pt x="265" y="630" on="0"/>
        <pt x="213" y="621" on="0"/>
        <pt x="211" y="614" on="1"/>
        <pt x="206" y="598" on="0"/>
        <pt x="206" y="540" on="1"/>
        <pt x="206" y="365" on="1"/>
        <pt x="206" y="364" on="0"/>
        <pt x="208" y="362" on="0"/>
        <pt x="208" y="362" on="1"/>
        <pt x="245" y="361" on="0"/>
        <pt x="324" y="359" on="0"/>
        <pt x="365" y="359" on="1"/>
        <pt x="383" y="359" on="0"/>
        <pt x="518" y="362" on="1"/>
        <pt x="518" y="362" on="0"/>
        <pt x="520" y="364" on="0"/>
        <pt x="520" y="366" on="1"/>
        <pt x="520" y="540" on="1"/>
        <pt x="520" y="598" on="0"/>
        <pt x="515" y="614" on="1"/>
        <pt x="513" y="621" on="0"/>
        <pt x="461" y="630" on="0"/>
        <pt x="446" y="630" on="1"/>
        <pt x="443" y="634" on="0"/>
        <pt x="442" y="658" on="0"/>
        <pt x="446" y="662" on="1"/>
        <pt x="476" y="660" on="0"/>
        <pt x="535" y="657" on="0"/>
        <pt x="564" y="657" on="1"/>
        <pt x="593" y="657" on="0"/>
        <pt x="651" y="660" on="0"/>
        <pt x="681" y="662" on="1"/>
        <pt x="685" y="658" on="0"/>
        <pt x="684" y="634" on="0"/>
        <pt x="681" y="630" on="1"/>
        <pt x="666" y="630" on="0"/>
        <pt x="614" y="621" on="0"/>
        <pt x="612" y="614" on="1"/>
        <pt x="607" y="598" on="0"/>
        <pt x="607" y="540" on="1"/>
        <pt x="607" y="119" on="1"/>
        <pt x="607" y="61" on="0"/>
        <pt x="612" y="45" on="1"/>
        <pt x="614" y="38" on="0"/>
        <pt x="666" y="29" on="0"/>
        <pt x="681" y="29" on="1"/>
        <pt x="684" y="25" on="0"/>
        <pt x="685" y="1" on="0"/>
        <pt x="681" y="-3" on="1"/>
        <pt x="651" y="-1" on="0"/>
        <pt x="593" y="2" on="0"/>
        <pt x="564" y="2" on="1"/>
        <pt x="535" y="2" on="0"/>
        <pt x="476" y="-1" on="0"/>
        <pt x="446" y="-3" on="1"/>
        <pt x="442" y="1" on="0"/>
        <pt x="443" y="25" on="0"/>
        <pt x="446" y="29" on="1"/>
        <pt x="461" y="29" on="0"/>
        <pt x="513" y="38" on="0"/>
        <pt x="515" y="45" on="1"/>
        <pt x="520" y="61" on="0"/>
        <pt x="520" y="119" on="1"/>
        <pt x="520" y="317" on="1"/>
        <pt x="520" y="319" on="0"/>
        <pt x="518" y="321" on="0"/>
        <pt x="518" y="321" on="1"/>
        <pt x="481" y="322" on="0"/>
        <pt x="404" y="325" on="0"/>
        <pt x="365" y="325" on="1"/>
        <pt x="219" y="325" on="0"/>
        <pt x="206" y="317" on="0"/>
        <pt x="206" y="317" on="1"/>
        <pt x="206" y="119" on="1"/>
        <pt x="206" y="61" on="0"/>
        <pt x="211" y="45" on="1"/>
        <pt x="213" y="38" on="0"/>
        <pt x="265" y="29" on="0"/>
        <pt x="280" y="29" on="1"/>
        <pt x="283" y="25" on="0"/>
        <pt x="284" y="1" on="0"/>
        <pt x="280" y="-3" on="1"/>
        <pt x="250" y="-1" on="0"/>
        <pt x="192" y="2" on="0"/>
        <pt x="163" y="2" on="1"/>
        <pt x="134" y="2" on="0"/>
        <pt x="75" y="-1" on="0"/>
        <pt x="45" y="-3" on="1"/>
        <pt x="41" y="1" on="0"/>
        <pt x="42" y="25" on="0"/>
        <pt x="45" y="29" on="1"/>
        <pt x="60" y="29" on="0"/>
        <pt x="112" y="38" on="0"/>
        <pt x="114" y="45" on="1"/>
        <pt x="119" y="61" on="0"/>
        <pt x="119" y="119" on="1"/>
        <pt x="119" y="540" on="1"/>
        <pt x="119" y="598" on="0"/>
        <pt x="114" y="614" on="1"/>
        <pt x="112" y="621" on="0"/>
        <pt x="60" y="630" on="0"/>
        <pt x="45" y="630" on="1"/>
        <pt x="42" y="634" on="0"/>
        <pt x="41" y="658" on="0"/>
        <pt x="45" y="662" on="1"/>
        <pt x="75" y="660" on="0"/>
        <pt x="134" y="657" on="0"/>
        <pt x="163" y="657" on="1"/>
      </contour>
    </TTGlyph>
    <TTGlyph name="I" xMin="41" yMin="-3" xMax="284" yMax="662">
      <contour>
        <pt x="192" y="657" on="0"/>
        <pt x="250" y="660" on="0"/>
        <pt x="280" y="662" on="1"/>
        <pt x="284" y="658" on="0"/>
        <pt x="283" y="637" on="0"/>
        <pt x="280" y="633" on="1"/>
        <pt x="265" y="633" on="0"/>
        <pt x="213" y="624" on="0"/>
        <pt x="211" y="617" on="1"/>
        <pt x="206" y="601" on="0"/>
        <pt x="206" y="543" on="1"/>
        <pt x="206" y="116" on="1"/>
        <pt x="206" y="58" on="0"/>
        <pt x="211" y="42" on="1"/>
        <pt x="213" y="35" on="0"/>
        <pt x="265" y="26" on="0"/>
        <pt x="280" y="26" on="1"/>
        <pt x="283" y="22" on="0"/>
        <pt x="284" y="1" on="0"/>
        <pt x="280" y="-3" on="1"/>
        <pt x="250" y="-1" on="0"/>
        <pt x="192" y="2" on="0"/>
        <pt x="163" y="2" on="1"/>
        <pt x="134" y="2" on="0"/>
        <pt x="75" y="-1" on="0"/>
        <pt x="45" y="-3" on="1"/>
        <pt x="41" y="1" on="0"/>
        <pt x="42" y="22" on="0"/>
        <pt x="45" y="26" on="1"/>
        <pt x="60" y="26" on="0"/>
        <pt x="112" y="35" on="0"/>
        <pt x="114" y="42" on="1"/>
        <pt x="119" y="58" on="0"/>
        <pt x="119" y="116" on="1"/>
        <pt x="119" y="543" on="1"/>
        <pt x="119" y="601" on="0"/>
        <pt x="114" y="617" on="1"/>
        <pt x="112" y="624" on="0"/>
        <pt x="60" y="633" on="0"/>
        <pt x="45" y="633" on="1"/>
        <pt x="42" y="637" on="0"/>
        <pt x="41" y="658" on="0"/>
        <pt x="45" y="662" on="1"/>
        <pt x="75" y="660" on="0"/>
        <pt x="134" y="657" on="0"/>
        <pt x="163" y="657" on="1"/>
      </contour>
    </TTGlyph>
    <TTGlyph name="a" xMin="37" yMin="-8" xMax="372" yMax="436">
      <contour>
        <pt x="203" y="46" on="0"/>
        <pt x="246" y="62" on="0"/>
        <pt x="277" y="82" on="0"/>
        <pt x="277" y="87" on="1"/>
        <pt x="277" y="223" on="1"/>
        <pt x="209" y="205" on="0"/>
        <pt x="181" y="194" on="1"/>
        <pt x="153" y="183" on="0"/>
        <pt x="120" y="143" on="0"/>
        <pt x="120" y="116" on="1"/>
        <pt x="120" y="88" on="0"/>
        <pt x="159" y="46" on="0"/>
        <pt x="187" y="46" on="1"/>
      </contour>
      <contour>
        <pt x="269" y="436" on="0"/>
        <pt x="320" y="399" on="0"/>
        <pt x="351" y="337" on="0"/>
        <pt x="351" y="299" on="1"/>
        <pt x="353" y="123" on="1"/>
        <pt x="353" y="77" on="0"/>
        <pt x="359" y="33" on="0"/>
        <pt x="372" y="0" on="1"/>
        <pt x="372" y="0" on="0"/>
        <pt x="372" y="0" on="0"/>
        <pt x="372" y="0" on="1"/>
        <pt x="372" y="0" on="0"/>
        <pt x="372" y="0" on="0"/>
        <pt x="372" y="0" on="1"/>
        <pt x="372" y="0" on="0"/>
        <pt x="372" y="0" on="0"/>
        <pt x="372" y="0" on="1"/>
        <pt x="360" y="0" on="0"/>
        <pt x="305" y="0" on="0"/>
        <pt x="292" y="0" on="1"/>
        <pt x="288" y="4" on="0"/>
        <pt x="280" y="38" on="0"/>
        <pt x="280" y="59" on="1"/>
        <pt x="257" y="41" on="0"/>
        <pt x="176" y="-8" on="0"/>
        <pt x="154" y="-8" on="1"/>
        <pt x="104" y="-8" on="0"/>
        <pt x="37" y="58" on="0"/>
        <pt x="37" y="107" on="1"/>
        <pt x="37" y="136" on="0"/>
        <pt x="68" y="180" on="0"/>
        <pt x="87" y="187" on="1"/>
        <pt x="134" y="204" on="0"/>
        <pt x="246" y="242" on="0"/>
        <pt x="265" y="250" on="1"/>
        <pt x="273" y="253" on="0"/>
        <pt x="277" y="262" on="0"/>
        <pt x="277" y="275" on="1"/>
        <pt x="276" y="302" on="1"/>
        <pt x="274" y="338" on="0"/>
        <pt x="223" y="398" on="0"/>
        <pt x="188" y="398" on="1"/>
        <pt x="163" y="398" on="0"/>
        <pt x="139" y="367" on="0"/>
        <pt x="133" y="336" on="1"/>
        <pt x="125" y="288" on="0"/>
        <pt x="86" y="288" on="1"/>
        <pt x="71" y="288" on="0"/>
        <pt x="52" y="314" on="0"/>
        <pt x="52" y="330" on="1"/>
        <pt x="52" y="335" on="0"/>
        <pt x="60" y="353" on="0"/>
        <pt x="68" y="360" on="1"/>
        <pt x="91" y="384" on="0"/>
        <pt x="193" y="436" on="0"/>
        <pt x="241" y="436" on="1"/>
      </contour>
    </TTGlyph>
    <TTGlyph name="comma" xMin="17" yMin="-139" xMax="150" yMax="123">
      <contour>
        <pt x="120" y="123" on="0"/>
        <pt x="132" y="116" on="1"/>
        <pt x="150" y="85" on="0"/>
        <pt x="150" y="46" on="1"/>
        <pt x="150" y="19" on="0"/>
        <pt x="113" y="-58" on="0"/>
        <pt x="57" y="-125" on="0"/>
        <pt x="32" y="-139" on="1"/>
        <pt x="27" y="-139" on="0"/>
        <pt x="17" y="-123" on="0"/>
        <pt x="17" y="-118" on="1"/>
        <pt x="43" y="-99" on="0"/>
        <pt x="80" y="-48" on="0"/>
        <pt x="80" y="-7" on="1"/>
        <pt x="80" y="7" on="0"/>
        <pt x="42" y="67" on="0"/>
        <pt x="47" y="58" on="0"/>
        <pt x="47" y="74" on="1"/>
        <pt x="47" y="91" on="0"/>
        <pt x="81" y="123" on="0"/>
        <pt x="106" y="123" on="1"/>
      </contour>
    </TTGlyph>
    <TTGlyph name="d" xMin="39" yMin="-8" xMax="428" yMax="666">
      <contour>
        <pt x="292" y="438" on="0"/>
        <pt x="338" y="431" on="0"/>
        <pt x="346" y="428" on="1"/>
        <pt x="351" y="428" on="0"/>
        <pt x="351" y="449" on="1"/>
        <pt x="351" y="518" on="1"/>
        <pt x="351" y="530" on="0"/>
        <pt x="351" y="559" on="0"/>
        <pt x="351" y="570" on="1"/>
        <pt x="351" y="579" on="0"/>
        <pt x="351" y="587" on="0"/>
        <pt x="351" y="588" on="1"/>
        <pt x="351" y="600" on="0"/>
        <pt x="351" y="654" on="0"/>
        <pt x="351" y="666" on="1"/>
        <pt x="358" y="666" on="0"/>
        <pt x="402" y="666" on="0"/>
        <pt x="428" y="666" on="1"/>
        <pt x="428" y="666" on="0"/>
        <pt x="428" y="666" on="0"/>
        <pt x="428" y="666" on="1"/>
        <pt x="428" y="666" on="0"/>
        <pt x="428" y="657" on="0"/>
        <pt x="428" y="623" on="0"/>
        <pt x="428" y="591" on="1"/>
        <pt x="428" y="163" on="1"/>
        <pt x="428" y="138" on="0"/>
        <pt x="428" y="106" on="0"/>
        <pt x="428" y="95" on="1"/>
        <pt x="428" y="57" on="0"/>
        <pt x="428" y="17" on="0"/>
        <pt x="428" y="6" on="0"/>
        <pt x="428" y="5" on="1"/>
        <pt x="428" y="5" on="0"/>
        <pt x="428" y="5" on="0"/>
        <pt x="428" y="5" on="1"/>
        <pt x="428" y="4" on="0"/>
        <pt x="428" y="3" on="0"/>
        <pt x="428" y="3" on="1"/>
        <pt x="428" y="2" on="0"/>
        <pt x="394" y="0" on="0"/>
        <pt x="364" y="0" on="0"/>
        <pt x="359" y="0" on="1"/>
        <pt x="355" y="0" on="0"/>
        <pt x="351" y="6" on="0"/>
        <pt x="351" y="11" on="1"/>
        <pt x="351" y="46" on="1"/>
        <pt x="351" y="55" on="0"/>
        <pt x="348" y="52" on="1"/>
        <pt x="339" y="43" on="0"/>
        <pt x="292" y="14" on="0"/>
        <pt x="233" y="-8" on="0"/>
        <pt x="207" y="-8" on="1"/>
        <pt x="165" y="-8" on="0"/>
        <pt x="87" y="45" on="0"/>
        <pt x="39" y="143" on="0"/>
        <pt x="39" y="206" on="1"/>
        <pt x="39" y="268" on="0"/>
        <pt x="118" y="375" on="0"/>
        <pt x="231" y="438" on="0"/>
        <pt x="277" y="438" on="1"/>
      </contour>
      <contour>
        <pt x="208" y="396" on="0"/>
        <pt x="153" y="349" on="0"/>
        <pt x="123" y="273" on="0"/>
        <pt x="123" y="230" on="1"/>
        <pt x="123" y="154" on="0"/>
        <pt x="194" y="54" on="0"/>
        <pt x="264" y="54" on="1"/>
        <pt x="296" y="54" on="0"/>
        <pt x="351" y="81" on="0"/>
        <pt x="351" y="94" on="1"/>
        <pt x="351" y="347" on="1"/>
        <pt x="351" y="365" on="0"/>
        <pt x="286" y="396" on="0"/>
        <pt x="245" y="396" on="1"/>
      </contour>
    </TTGlyph>
    <TTGlyph name="e" xMin="30" yMin="-8" xMax="385" yMax="438">
      <contour>
        <pt x="292" y="285" on="0"/>
        <pt x="292" y="308" on="1"/>
        <pt x="292" y="325" on="0"/>
        <pt x="275" y="369" on="0"/>
        <pt x="238" y="402" on="0"/>
        <pt x="210" y="402" on="1"/>
        <pt x="173" y="402" on="0"/>
        <pt x="125" y="350" on="0"/>
        <pt x="103" y="285" on="0"/>
        <pt x="106" y="285" on="1"/>
        <pt x="290" y="285" on="1"/>
      </contour>
      <contour>
        <pt x="310" y="253" on="0"/>
        <pt x="108" y="246" on="0"/>
        <pt x="101" y="243" on="0"/>
        <pt x="101" y="241" on="1"/>
        <pt x="101" y="182" on="0"/>
        <pt x="146" y="98" on="0"/>
        <pt x="220" y="56" on="0"/>
        <pt x="264" y="56" on="1"/>
        <pt x="300" y="56" on="0"/>
        <pt x="358" y="91" on="0"/>
        <pt x="374" y="109" on="1"/>
        <pt x="376" y="107" on="0"/>
        <pt x="383" y="97" on="0"/>
        <pt x="385" y="95" on="1"/>
        <pt x="383" y="91" on="0"/>
        <pt x="378" y="81" on="0"/>
        <pt x="376" y="77" on="1"/>
        <pt x="357" y="46" on="0"/>
        <pt x="282" y="-8" on="0"/>
        <pt x="230" y="-8" on="1"/>
        <pt x="172" y="-8" on="0"/>
        <pt x="81" y="46" on="0"/>
        <pt x="30" y="141" on="0"/>
        <pt x="30" y="200" on="1"/>
        <pt x="30" y="264" on="0"/>
        <pt x="90" y="374" on="0"/>
        <pt x="183" y="438" on="0"/>
        <pt x="227" y="438" on="1"/>
        <pt x="282" y="438" on="0"/>
        <pt x="349" y="390" on="0"/>
        <pt x="377" y="327" on="0"/>
        <pt x="377" y="302" on="1"/>
        <pt x="377" y="285" on="0"/>
        <pt x="372" y="259" on="0"/>
        <pt x="372" y="256" on="1"/>
      </contour>
    </TTGlyph>
    <TTGlyph name="h" xMin="85" yMin="0" xMax="431" yMax="670">
      <contour>
        <pt x="355" y="438" on="0"/>
        <pt x="411" y="393" on="0"/>
        <pt x="431" y="304" on="0"/>
        <pt x="431" y="226" on="1"/>
        <pt x="431" y="146" on="1"/>
        <pt x="431" y="124" on="0"/>
        <pt x="431" y="86" on="0"/>
        <pt x="431" y="72" on="1"/>
        <pt x="431" y="65" on="0"/>
        <pt x="431" y="57" on="0"/>
        <pt x="431" y="56" on="1"/>
        <pt x="431" y="45" on="0"/>
        <pt x="431" y="8" on="0"/>
        <pt x="431" y="0" on="1"/>
        <pt x="430" y="0" on="0"/>
        <pt x="415" y="0" on="0"/>
        <pt x="392" y="0" on="1"/>
        <pt x="370" y="0" on="0"/>
        <pt x="355" y="0" on="0"/>
        <pt x="354" y="0" on="1"/>
        <pt x="354" y="8" on="0"/>
        <pt x="354" y="45" on="0"/>
        <pt x="354" y="56" on="1"/>
        <pt x="354" y="57" on="0"/>
        <pt x="354" y="65" on="0"/>
        <pt x="354" y="72" on="1"/>
        <pt x="354" y="86" on="0"/>
        <pt x="354" y="124" on="0"/>
        <pt x="354" y="146" on="1"/>
        <pt x="354" y="216" on="1"/>
        <pt x="354" y="280" on="0"/>
        <pt x="337" y="350" on="0"/>
        <pt x="295" y="380" on="0"/>
        <pt x="256" y="380" on="1"/>
        <pt x="239" y="380" on="0"/>
        <pt x="195" y="358" on="0"/>
        <pt x="161" y="330" on="0"/>
        <pt x="161" y="325" on="1"/>
        <pt x="161" y="367" on="1"/>
        <pt x="161" y="363" on="0"/>
        <pt x="164" y="363" on="1"/>
        <pt x="165" y="363" on="0"/>
        <pt x="167" y="365" on="1"/>
        <pt x="187" y="387" on="0"/>
        <pt x="270" y="438" on="0"/>
        <pt x="302" y="438" on="1"/>
      </contour>
      <contour>
        <pt x="85" y="530" on="0"/>
        <pt x="85" y="559" on="0"/>
        <pt x="85" y="570" on="1"/>
        <pt x="85" y="579" on="0"/>
        <pt x="85" y="587" on="0"/>
        <pt x="85" y="588" on="1"/>
        <pt x="85" y="601" on="0"/>
        <pt x="85" y="657" on="0"/>
        <pt x="85" y="670" on="1"/>
        <pt x="92" y="670" on="0"/>
        <pt x="134" y="670" on="0"/>
        <pt x="161" y="670" on="1"/>
        <pt x="161" y="670" on="0"/>
        <pt x="161" y="670" on="0"/>
        <pt x="161" y="670" on="1"/>
        <pt x="161" y="665" on="0"/>
        <pt x="161" y="631" on="0"/>
        <pt x="161" y="579" on="0"/>
        <pt x="161" y="551" on="1"/>
        <pt x="161" y="166" on="1"/>
        <pt x="161" y="144" on="0"/>
        <pt x="161" y="106" on="0"/>
        <pt x="161" y="92" on="1"/>
        <pt x="161" y="85" on="0"/>
        <pt x="161" y="77" on="0"/>
        <pt x="161" y="76" on="1"/>
        <pt x="161" y="62" on="0"/>
        <pt x="161" y="11" on="0"/>
        <pt x="161" y="0" on="1"/>
        <pt x="160" y="0" on="0"/>
        <pt x="145" y="0" on="0"/>
        <pt x="123" y="0" on="1"/>
        <pt x="101" y="0" on="0"/>
        <pt x="86" y="0" on="0"/>
        <pt x="85" y="0" on="1"/>
        <pt x="85" y="11" on="0"/>
        <pt x="85" y="62" on="0"/>
        <pt x="85" y="76" on="1"/>
        <pt x="85" y="77" on="0"/>
        <pt x="85" y="85" on="0"/>
        <pt x="85" y="92" on="1"/>
        <pt x="85" y="106" on="0"/>
        <pt x="85" y="144" on="0"/>
        <pt x="85" y="166" on="1"/>
        <pt x="85" y="518" on="1"/>
      </contour>
    </TTGlyph>
    <TTGlyph name="h.001" xMin="17" yMin="-3" xMax="508" yMax="694">
      <contour>
        <pt x="360" y="438" on="0"/>
        <pt x="416" y="393" on="0"/>
        <pt x="436" y="304" on="0"/>
        <pt x="436" y="226" on="1"/>
        <pt x="436" y="116" on="1"/>
        <pt x="436" y="58" on="0"/>
        <pt x="441" y="42" on="1"/>
        <pt x="443" y="35" on="0"/>
        <pt x="490" y="26" on="0"/>
        <pt x="504" y="26" on="1"/>
        <pt x="507" y="22" on="0"/>
        <pt x="508" y="1" on="0"/>
        <pt x="504" y="-3" on="1"/>
        <pt x="475" y="-1" on="0"/>
        <pt x="420" y="2" on="0"/>
        <pt x="397" y="2" on="1"/>
        <pt x="374" y="2" on="0"/>
        <pt x="319" y="-1" on="0"/>
        <pt x="291" y="-3" on="1"/>
        <pt x="287" y="1" on="0"/>
        <pt x="288" y="22" on="0"/>
        <pt x="291" y="26" on="1"/>
        <pt x="305" y="26" on="0"/>
        <pt x="352" y="35" on="0"/>
        <pt x="354" y="42" on="1"/>
        <pt x="359" y="58" on="0"/>
        <pt x="359" y="116" on="1"/>
        <pt x="359" y="216" on="1"/>
        <pt x="359" y="280" on="0"/>
        <pt x="342" y="350" on="0"/>
        <pt x="300" y="380" on="0"/>
        <pt x="261" y="380" on="1"/>
        <pt x="244" y="380" on="0"/>
        <pt x="200" y="358" on="0"/>
        <pt x="166" y="330" on="0"/>
        <pt x="166" y="325" on="1"/>
        <pt x="166" y="116" on="1"/>
        <pt x="166" y="58" on="0"/>
        <pt x="171" y="42" on="1"/>
        <pt x="173" y="35" on="0"/>
        <pt x="220" y="26" on="0"/>
        <pt x="234" y="26" on="1"/>
        <pt x="237" y="22" on="0"/>
        <pt x="238" y="1" on="0"/>
        <pt x="234" y="-3" on="1"/>
        <pt x="205" y="-1" on="0"/>
        <pt x="150" y="2" on="0"/>
        <pt x="127" y="2" on="1"/>
        <pt x="104" y="2" on="0"/>
        <pt x="49" y="-1" on="0"/>
        <pt x="21" y="-3" on="1"/>
        <pt x="17" y="1" on="0"/>
        <pt x="18" y="22" on="0"/>
        <pt x="21" y="26" on="1"/>
        <pt x="35" y="26" on="0"/>
        <pt x="82" y="35" on="0"/>
        <pt x="84" y="42" on="1"/>
        <pt x="89" y="58" on="0"/>
        <pt x="89" y="116" on="1"/>
        <pt x="89" y="558" on="1"/>
        <pt x="89" y="598" on="0"/>
        <pt x="84" y="610" on="1"/>
        <pt x="76" y="628" on="0"/>
        <pt x="23" y="628" on="1"/>
        <pt x="22" y="632" on="0"/>
        <pt x="21" y="653" on="0"/>
        <pt x="24" y="654" on="1"/>
        <pt x="93" y="661" on="0"/>
        <pt x="166" y="694" on="1"/>
        <pt x="170" y="694" on="0"/>
        <pt x="177" y="683" on="0"/>
        <pt x="177" y="678" on="1"/>
        <pt x="176" y="675" on="0"/>
        <pt x="171" y="654" on="0"/>
        <pt x="166" y="615" on="0"/>
        <pt x="166" y="591" on="1"/>
        <pt x="166" y="365" on="1"/>
        <pt x="166" y="363" on="0"/>
        <pt x="169" y="363" on="1"/>
        <pt x="170" y="363" on="0"/>
        <pt x="172" y="365" on="1"/>
        <pt x="192" y="387" on="0"/>
        <pt x="275" y="438" on="0"/>
        <pt x="307" y="438" on="1"/>
      </contour>
    </TTGlyph>
    <TTGlyph name="h.002" xMin="17" yMin="-3" xMax="508" yMax="694">
      <contour>
        <pt x="360" y="438" on="0"/>
        <pt x="416" y="393" on="0"/>
        <pt x="436" y="304" on="0"/>
        <pt x="436" y="226" on="1"/>
        <pt x="436" y="116" on="1"/>
        <pt x="436" y="58" on="0"/>
        <pt x="441" y="42" on="1"/>
        <pt x="443" y="35" on="0"/>
        <pt x="490" y="26" on="0"/>
        <pt x="504" y="26" on="1"/>
        <pt x="507" y="22" on="0"/>
        <pt x="508" y="1" on="0"/>
        <pt x="504" y="-3" on="1"/>
        <pt x="475" y="-1" on="0"/>
        <pt x="420" y="2" on="0"/>
        <pt x="397" y="2" on="1"/>
        <pt x="374" y="2" on="0"/>
        <pt x="319" y="-1" on="0"/>
        <pt x="291" y="-3" on="1"/>
        <pt x="287" y="1" on="0"/>
        <pt x="288" y="22" on="0"/>
        <pt x="291" y="26" on="1"/>
        <pt x="305" y="26" on="0"/>
        <pt x="352" y="35" on="0"/>
        <pt x="354" y="42" on="1"/>
        <pt x="359" y="58" on="0"/>
        <pt x="359" y="116" on="1"/>
        <pt x="359" y="216" on="1"/>
        <pt x="359" y="280" on="0"/>
        <pt x="342" y="350" on="0"/>
        <pt x="300" y="380" on="0"/>
        <pt x="261" y="380" on="1"/>
        <pt x="244" y="380" on="0"/>
        <pt x="200" y="358" on="0"/>
        <pt x="166" y="330" on="0"/>
        <pt x="166" y="325" on="1"/>
        <pt x="166" y="116" on="1"/>
        <pt x="166" y="58" on="0"/>
        <pt x="171" y="42" on="1"/>
        <pt x="173" y="35" on="0"/>
        <pt x="220" y="26" on="0"/>
        <pt x="234" y="26" on="1"/>
        <pt x="237" y="22" on="0"/>
        <pt x="238" y="1" on="0"/>
        <pt x="234" y="-3" on="1"/>
        <pt x="205" y="-1" on="0"/>
        <pt x="150" y="2" on="0"/>
        <pt x="127" y="2" on="1"/>
        <pt x="104" y="2" on="0"/>
        <pt x="49" y="-1" on="0"/>
        <pt x="21" y="-3" on="1"/>
        <pt x="17" y="1" on="0"/>
        <pt x="18" y="22" on="0"/>
        <pt x="21" y="26" on="1"/>
        <pt x="35" y="26" on="0"/>
        <pt x="82" y="35" on="0"/>
        <pt x="84" y="42" on="1"/>
        <pt x="89" y="58" on="0"/>
        <pt x="89" y="116" on="1"/>
        <pt x="89" y="558" on="1"/>
        <pt x="89" y="598" on="0"/>
        <pt x="84" y="610" on="1"/>
        <pt x="76" y="628" on="0"/>
        <pt x="23" y="628" on="1"/>
        <pt x="22" y="632" on="0"/>
        <pt x="21" y="653" on="0"/>
        <pt x="24" y="654" on="1"/>
        <pt x="93" y="661" on="0"/>
        <pt x="166" y="694" on="1"/>
        <pt x="170" y="694" on="0"/>
        <pt x="177" y="683" on="0"/>
        <pt x="177" y="678" on="1"/>
        <pt x="176" y="675" on="0"/>
        <pt x="171" y="654" on="0"/>
        <pt x="166" y="615" on="0"/>
        <pt x="166" y="591" on="1"/>
        <pt x="166" y="365" on="1"/>
        <pt x="166" y="363" on="0"/>
        <pt x="169" y="363" on="1"/>
        <pt x="170" y="363" on="0"/>
        <pt x="172" y="365" on="1"/>
        <pt x="192" y="387" on="0"/>
        <pt x="275" y="438" on="0"/>
        <pt x="307" y="438" on="1"/>
      </contour>
    </TTGlyph>
    <TTGlyph name="hyphen" xMin="58" yMin="199" xMax="319" yMax="273">
      <contour>
        <pt x="104" y="263" on="0"/>
        <pt x="260" y="271" on="0"/>
        <pt x="312" y="273" on="1"/>
        <pt x="319" y="273" on="0"/>
        <pt x="319" y="264" on="1"/>
        <pt x="319" y="238" on="0"/>
        <pt x="306" y="210" on="1"/>
        <pt x="286" y="209" on="0"/>
        <pt x="65" y="199" on="1"/>
        <pt x="61" y="199" on="0"/>
        <pt x="58" y="203" on="0"/>
        <pt x="58" y="210" on="1"/>
        <pt x="58" y="233" on="0"/>
        <pt x="71" y="261" on="1"/>
      </contour>
    </TTGlyph>
    <TTGlyph name="i" xMin="73" yMin="0" xMax="173" yMax="643">
      <contour>
        <pt x="162" y="124" on="0"/>
        <pt x="162" y="86" on="0"/>
        <pt x="162" y="72" on="1"/>
        <pt x="162" y="65" on="0"/>
        <pt x="162" y="57" on="0"/>
        <pt x="162" y="56" on="1"/>
        <pt x="162" y="45" on="0"/>
        <pt x="162" y="8" on="0"/>
        <pt x="162" y="0" on="1"/>
        <pt x="161" y="0" on="0"/>
        <pt x="146" y="0" on="0"/>
        <pt x="123" y="0" on="1"/>
        <pt x="101" y="0" on="0"/>
        <pt x="86" y="0" on="0"/>
        <pt x="85" y="0" on="1"/>
        <pt x="85" y="8" on="0"/>
        <pt x="85" y="45" on="0"/>
        <pt x="85" y="56" on="1"/>
        <pt x="85" y="57" on="0"/>
        <pt x="85" y="65" on="0"/>
        <pt x="85" y="72" on="1"/>
        <pt x="85" y="86" on="0"/>
        <pt x="85" y="124" on="0"/>
        <pt x="85" y="146" on="1"/>
        <pt x="85" y="282" on="1"/>
        <pt x="85" y="294" on="0"/>
        <pt x="85" y="321" on="0"/>
        <pt x="85" y="334" on="1"/>
        <pt x="85" y="344" on="0"/>
        <pt x="85" y="352" on="0"/>
        <pt x="85" y="352" on="1"/>
        <pt x="85" y="365" on="0"/>
        <pt x="85" y="420" on="0"/>
        <pt x="85" y="432" on="1"/>
        <pt x="97" y="432" on="0"/>
        <pt x="150" y="432" on="0"/>
        <pt x="162" y="432" on="1"/>
        <pt x="162" y="431" on="0"/>
        <pt x="162" y="427" on="0"/>
        <pt x="162" y="424" on="1"/>
        <pt x="162" y="409" on="0"/>
        <pt x="162" y="355" on="0"/>
        <pt x="162" y="338" on="1"/>
        <pt x="162" y="305" on="1"/>
        <pt x="162" y="146" on="1"/>
      </contour>
      <contour>
        <pt x="73" y="614" on="0"/>
        <pt x="102" y="643" on="0"/>
        <pt x="123" y="643" on="1"/>
        <pt x="144" y="643" on="0"/>
        <pt x="173" y="614" on="0"/>
        <pt x="173" y="593" on="1"/>
        <pt x="173" y="572" on="0"/>
        <pt x="144" y="543" on="0"/>
        <pt x="123" y="543" on="1"/>
        <pt x="102" y="543" on="0"/>
        <pt x="73" y="572" on="0"/>
        <pt x="73" y="593" on="1"/>
      </contour>
    </TTGlyph>
    <TTGlyph name="l" xMin="85" yMin="0" xMax="161" yMax="670">
      <contour>
        <pt x="85" y="530" on="0"/>
        <pt x="85" y="559" on="0"/>
        <pt x="85" y="570" on="1"/>
        <pt x="85" y="579" on="0"/>
        <pt x="85" y="587" on="0"/>
        <pt x="85" y="588" on="1"/>
        <pt x="85" y="601" on="0"/>
        <pt x="85" y="657" on="0"/>
        <pt x="85" y="670" on="1"/>
        <pt x="92" y="670" on="0"/>
        <pt x="134" y="670" on="0"/>
        <pt x="161" y="670" on="1"/>
        <pt x="161" y="670" on="0"/>
        <pt x="161" y="670" on="0"/>
        <pt x="161" y="670" on="1"/>
        <pt x="161" y="665" on="0"/>
        <pt x="161" y="631" on="0"/>
        <pt x="161" y="579" on="0"/>
        <pt x="161" y="551" on="1"/>
        <pt x="161" y="166" on="1"/>
        <pt x="161" y="144" on="0"/>
        <pt x="161" y="106" on="0"/>
        <pt x="161" y="92" on="1"/>
        <pt x="161" y="85" on="0"/>
        <pt x="161" y="77" on="0"/>
        <pt x="161" y="76" on="1"/>
        <pt x="161" y="62" on="0"/>
        <pt x="161" y="11" on="0"/>
        <pt x="161" y="0" on="1"/>
        <pt x="160" y="0" on="0"/>
        <pt x="145" y="0" on="0"/>
        <pt x="123" y="0" on="1"/>
        <pt x="101" y="0" on="0"/>
        <pt x="86" y="0" on="0"/>
        <pt x="85" y="0" on="1"/>
        <pt x="85" y="11" on="0"/>
        <pt x="85" y="62" on="0"/>
        <pt x="85" y="76" on="1"/>
        <pt x="85" y="77" on="0"/>
        <pt x="85" y="85" on="0"/>
        <pt x="85" y="92" on="1"/>
        <pt x="85" y="106" on="0"/>
        <pt x="85" y="144" on="0"/>
        <pt x="85" y="166" on="1"/>
        <pt x="85" y="518" on="1"/>
      </contour>
    </TTGlyph>
    <TTGlyph name="l.001" xMin="17" yMin="-3" xMax="238" yMax="694">
      <contour>
        <pt x="89" y="598" on="0"/>
        <pt x="84" y="610" on="1"/>
        <pt x="76" y="628" on="0"/>
        <pt x="23" y="628" on="1"/>
        <pt x="22" y="632" on="0"/>
        <pt x="21" y="653" on="0"/>
        <pt x="24" y="654" on="1"/>
        <pt x="93" y="661" on="0"/>
        <pt x="166" y="694" on="1"/>
        <pt x="170" y="694" on="0"/>
        <pt x="177" y="683" on="0"/>
        <pt x="177" y="678" on="1"/>
        <pt x="176" y="675" on="0"/>
        <pt x="171" y="654" on="0"/>
        <pt x="166" y="615" on="0"/>
        <pt x="166" y="591" on="1"/>
        <pt x="166" y="116" on="1"/>
        <pt x="166" y="58" on="0"/>
        <pt x="171" y="42" on="1"/>
        <pt x="173" y="35" on="0"/>
        <pt x="220" y="26" on="0"/>
        <pt x="234" y="26" on="1"/>
        <pt x="237" y="22" on="0"/>
        <pt x="238" y="1" on="0"/>
        <pt x="234" y="-3" on="1"/>
        <pt x="205" y="-1" on="0"/>
        <pt x="150" y="2" on="0"/>
        <pt x="127" y="2" on="1"/>
        <pt x="104" y="2" on="0"/>
        <pt x="49" y="-1" on="0"/>
        <pt x="21" y="-3" on="1"/>
        <pt x="17" y="1" on="0"/>
        <pt x="18" y="22" on="0"/>
        <pt x="21" y="26" on="1"/>
        <pt x="35" y="26" on="0"/>
        <pt x="82" y="35" on="0"/>
        <pt x="84" y="42" on="1"/>
        <pt x="89" y="58" on="0"/>
        <pt x="89" y="116" on="1"/>
        <pt x="89" y="558" on="1"/>
      </contour>
    </TTGlyph>
    <TTGlyph name="n" xMin="85" yMin="0" xMax="432" yMax="438">
      <contour>
        <pt x="356" y="438" on="0"/>
        <pt x="412" y="393" on="0"/>
        <pt x="432" y="304" on="0"/>
        <pt x="432" y="226" on="1"/>
        <pt x="432" y="146" on="1"/>
        <pt x="432" y="124" on="0"/>
        <pt x="432" y="86" on="0"/>
        <pt x="432" y="72" on="1"/>
        <pt x="432" y="65" on="0"/>
        <pt x="432" y="57" on="0"/>
        <pt x="432" y="56" on="1"/>
        <pt x="432" y="45" on="0"/>
        <pt x="432" y="8" on="0"/>
        <pt x="432" y="0" on="1"/>
        <pt x="431" y="0" on="0"/>
        <pt x="416" y="0" on="0"/>
        <pt x="393" y="0" on="1"/>
        <pt x="371" y="0" on="0"/>
        <pt x="356" y="0" on="0"/>
        <pt x="355" y="0" on="1"/>
        <pt x="355" y="8" on="0"/>
        <pt x="355" y="45" on="0"/>
        <pt x="355" y="56" on="1"/>
        <pt x="355" y="57" on="0"/>
        <pt x="355" y="65" on="0"/>
        <pt x="355" y="72" on="1"/>
        <pt x="355" y="86" on="0"/>
        <pt x="355" y="124" on="0"/>
        <pt x="355" y="146" on="1"/>
        <pt x="355" y="216" on="1"/>
        <pt x="355" y="280" on="0"/>
        <pt x="338" y="350" on="0"/>
        <pt x="296" y="380" on="0"/>
        <pt x="257" y="380" on="1"/>
        <pt x="240" y="380" on="0"/>
        <pt x="196" y="358" on="0"/>
        <pt x="162" y="330" on="0"/>
        <pt x="162" y="325" on="1"/>
        <pt x="162" y="146" on="1"/>
        <pt x="162" y="124" on="0"/>
        <pt x="162" y="86" on="0"/>
        <pt x="162" y="72" on="1"/>
        <pt x="162" y="65" on="0"/>
        <pt x="162" y="57" on="0"/>
        <pt x="162" y="56" on="1"/>
        <pt x="162" y="45" on="0"/>
        <pt x="162" y="8" on="0"/>
        <pt x="162" y="0" on="1"/>
        <pt x="161" y="0" on="0"/>
        <pt x="146" y="0" on="0"/>
        <pt x="123" y="0" on="1"/>
        <pt x="101" y="0" on="0"/>
        <pt x="86" y="0" on="0"/>
        <pt x="85" y="0" on="1"/>
        <pt x="85" y="8" on="0"/>
        <pt x="85" y="45" on="0"/>
        <pt x="85" y="56" on="1"/>
        <pt x="85" y="57" on="0"/>
        <pt x="85" y="65" on="0"/>
        <pt x="85" y="72" on="1"/>
        <pt x="85" y="86" on="0"/>
        <pt x="85" y="124" on="0"/>
        <pt x="85" y="146" on="1"/>
        <pt x="85" y="278" on="1"/>
        <pt x="85" y="291" on="0"/>
        <pt x="85" y="322" on="0"/>
        <pt x="85" y="334" on="1"/>
        <pt x="85" y="344" on="0"/>
        <pt x="85" y="352" on="0"/>
        <pt x="85" y="352" on="1"/>
        <pt x="85" y="361" on="0"/>
        <pt x="85" y="408" on="0"/>
        <pt x="85" y="432" on="1"/>
        <pt x="99" y="432" on="0"/>
        <pt x="136" y="432" on="0"/>
        <pt x="163" y="432" on="1"/>
        <pt x="163" y="431" on="0"/>
        <pt x="163" y="427" on="0"/>
        <pt x="163" y="424" on="1"/>
        <pt x="163" y="413" on="0"/>
        <pt x="163" y="378" on="0"/>
        <pt x="163" y="367" on="1"/>
        <pt x="163" y="363" on="0"/>
        <pt x="165" y="363" on="1"/>
        <pt x="166" y="363" on="0"/>
        <pt x="168" y="365" on="1"/>
        <pt x="188" y="387" on="0"/>
        <pt x="271" y="438" on="0"/>
        <pt x="303" y="438" on="1"/>
      </contour>
    </TTGlyph>
    <TTGlyph name="o" xMin="36" yMin="-7" xMax="463" yMax="439">
      <contour>
        <pt x="189" y="-7" on="0"/>
        <pt x="91" y="50" on="0"/>
        <pt x="36" y="150" on="0"/>
        <pt x="36" y="213" on="1"/>
        <pt x="36" y="278" on="0"/>
        <pt x="91" y="381" on="0"/>
        <pt x="188" y="439" on="0"/>
        <pt x="249" y="439" on="1"/>
        <pt x="310" y="439" on="0"/>
        <pt x="408" y="383" on="0"/>
        <pt x="463" y="283" on="0"/>
        <pt x="463" y="221" on="1"/>
        <pt x="463" y="156" on="0"/>
        <pt x="408" y="52" on="0"/>
        <pt x="312" y="-7" on="0"/>
        <pt x="251" y="-7" on="1"/>
      </contour>
      <contour>
        <pt x="308" y="29" on="0"/>
        <pt x="359" y="86" on="0"/>
        <pt x="382" y="177" on="0"/>
        <pt x="375" y="230" on="1"/>
        <pt x="368" y="284" on="0"/>
        <pt x="324" y="367" on="0"/>
        <pt x="261" y="409" on="0"/>
        <pt x="226" y="405" on="1"/>
        <pt x="190" y="401" on="0"/>
        <pt x="138" y="344" on="0"/>
        <pt x="116" y="253" on="0"/>
        <pt x="123" y="200" on="1"/>
        <pt x="130" y="146" on="0"/>
        <pt x="174" y="63" on="0"/>
        <pt x="237" y="21" on="0"/>
        <pt x="272" y="25" on="1"/>
      </contour>
    </TTGlyph>
    <TTGlyph name="p" xMin="85" yMin="-224" xMax="470" yMax="438">
      <contour>
        <pt x="347" y="438" on="0"/>
        <pt x="429" y="374" on="0"/>
        <pt x="470" y="278" on="0"/>
        <pt x="470" y="232" on="1"/>
        <pt x="470" y="170" on="0"/>
        <pt x="401" y="59" on="0"/>
        <pt x="292" y="-8" on="0"/>
        <pt x="236" y="-8" on="1"/>
        <pt x="201" y="-8" on="0"/>
        <pt x="166" y="3" on="1"/>
        <pt x="165" y="2" on="0"/>
        <pt x="162" y="-5" on="0"/>
        <pt x="162" y="-10" on="1"/>
        <pt x="162" y="-57" on="1"/>
        <pt x="162" y="-79" on="0"/>
        <pt x="162" y="-117" on="0"/>
        <pt x="162" y="-131" on="1"/>
        <pt x="162" y="-138" on="0"/>
        <pt x="162" y="-146" on="0"/>
        <pt x="162" y="-147" on="1"/>
        <pt x="162" y="-161" on="0"/>
        <pt x="162" y="-213" on="0"/>
        <pt x="162" y="-224" on="1"/>
        <pt x="161" y="-224" on="0"/>
        <pt x="146" y="-224" on="0"/>
        <pt x="123" y="-224" on="1"/>
        <pt x="101" y="-224" on="0"/>
        <pt x="86" y="-224" on="0"/>
        <pt x="85" y="-224" on="1"/>
        <pt x="85" y="-214" on="0"/>
        <pt x="85" y="-170" on="0"/>
        <pt x="85" y="-157" on="1"/>
        <pt x="85" y="-156" on="0"/>
        <pt x="85" y="-148" on="0"/>
        <pt x="85" y="-141" on="1"/>
        <pt x="85" y="-127" on="0"/>
        <pt x="85" y="-89" on="0"/>
        <pt x="85" y="-67" on="1"/>
        <pt x="85" y="262" on="1"/>
        <pt x="85" y="274" on="0"/>
        <pt x="85" y="303" on="0"/>
        <pt x="85" y="314" on="1"/>
        <pt x="85" y="324" on="0"/>
        <pt x="85" y="332" on="0"/>
        <pt x="85" y="332" on="1"/>
        <pt x="85" y="347" on="0"/>
        <pt x="85" y="414" on="0"/>
        <pt x="85" y="432" on="1"/>
        <pt x="96" y="432" on="0"/>
        <pt x="147" y="432" on="0"/>
        <pt x="162" y="432" on="1"/>
        <pt x="162" y="431" on="0"/>
        <pt x="162" y="427" on="0"/>
        <pt x="162" y="424" on="1"/>
        <pt x="162" y="416" on="0"/>
        <pt x="162" y="392" on="0"/>
        <pt x="162" y="383" on="1"/>
        <pt x="162" y="379" on="0"/>
        <pt x="164" y="379" on="1"/>
        <pt x="165" y="379" on="0"/>
        <pt x="167" y="381" on="1"/>
        <pt x="191" y="401" on="0"/>
        <pt x="262" y="438" on="0"/>
        <pt x="289" y="438" on="1"/>
      </contour>
      <contour>
        <pt x="227" y="379" on="0"/>
        <pt x="187" y="366" on="0"/>
        <pt x="162" y="347" on="0"/>
        <pt x="162" y="340" on="1"/>
        <pt x="162" y="100" on="1"/>
        <pt x="162" y="65" on="0"/>
        <pt x="223" y="27" on="0"/>
        <pt x="255" y="27" on="1"/>
        <pt x="295" y="27" on="0"/>
        <pt x="354" y="76" on="0"/>
        <pt x="386" y="153" on="0"/>
        <pt x="386" y="195" on="1"/>
        <pt x="386" y="253" on="0"/>
        <pt x="348" y="336" on="0"/>
        <pt x="285" y="379" on="0"/>
        <pt x="246" y="379" on="1"/>
      </contour>
    </TTGlyph>
    <TTGlyph name="period" xMin="48" yMin="-11" xMax="158" yMax="99">
      <contour>
        <pt x="48" y="67" on="0"/>
        <pt x="81" y="99" on="0"/>
        <pt x="104" y="99" on="1"/>
        <pt x="127" y="99" on="0"/>
        <pt x="158" y="68" on="0"/>
        <pt x="158" y="45" on="1"/>
        <pt x="158" y="22" on="0"/>
        <pt x="126" y="-11" on="0"/>
        <pt x="104" y="-11" on="1"/>
        <pt x="82" y="-11" on="0"/>
        <pt x="48" y="23" on="0"/>
        <pt x="48" y="45" on="1"/>
      </contour>
    </TTGlyph>
    <TTGlyph name="r" xMin="85" yMin="0" xMax="349" yMax="437">
      <contour>
        <pt x="310" y="437" on="0"/>
        <pt x="337" y="421" on="0"/>
        <pt x="344" y="408" on="1"/>
        <pt x="349" y="398" on="0"/>
        <pt x="349" y="381" on="1"/>
        <pt x="349" y="360" on="0"/>
        <pt x="329" y="339" on="0"/>
        <pt x="316" y="339" on="1"/>
        <pt x="306" y="339" on="0"/>
        <pt x="286" y="344" on="0"/>
        <pt x="279" y="348" on="1"/>
        <pt x="267" y="354" on="0"/>
        <pt x="254" y="360" on="0"/>
        <pt x="242" y="360" on="1"/>
        <pt x="222" y="360" on="0"/>
        <pt x="185" y="327" on="0"/>
        <pt x="162" y="282" on="0"/>
        <pt x="162" y="270" on="1"/>
        <pt x="162" y="166" on="1"/>
        <pt x="162" y="144" on="0"/>
        <pt x="162" y="106" on="0"/>
        <pt x="162" y="92" on="1"/>
        <pt x="162" y="85" on="0"/>
        <pt x="162" y="77" on="0"/>
        <pt x="162" y="76" on="1"/>
        <pt x="162" y="62" on="0"/>
        <pt x="162" y="11" on="0"/>
        <pt x="162" y="0" on="1"/>
        <pt x="161" y="0" on="0"/>
        <pt x="148" y="0" on="0"/>
        <pt x="129" y="0" on="1"/>
        <pt x="106" y="0" on="0"/>
        <pt x="86" y="0" on="0"/>
        <pt x="85" y="0" on="1"/>
        <pt x="85" y="11" on="0"/>
        <pt x="85" y="62" on="0"/>
        <pt x="85" y="76" on="1"/>
        <pt x="85" y="77" on="0"/>
        <pt x="85" y="85" on="0"/>
        <pt x="85" y="92" on="1"/>
        <pt x="85" y="106" on="0"/>
        <pt x="85" y="144" on="0"/>
        <pt x="85" y="166" on="1"/>
        <pt x="85" y="302" on="1"/>
        <pt x="85" y="308" on="0"/>
        <pt x="85" y="325" on="0"/>
        <pt x="85" y="334" on="1"/>
        <pt x="85" y="344" on="0"/>
        <pt x="85" y="352" on="0"/>
        <pt x="85" y="352" on="1"/>
        <pt x="85" y="361" on="0"/>
        <pt x="85" y="408" on="0"/>
        <pt x="85" y="432" on="1"/>
        <pt x="97" y="432" on="0"/>
        <pt x="151" y="432" on="0"/>
        <pt x="163" y="432" on="1"/>
        <pt x="163" y="431" on="0"/>
        <pt x="163" y="427" on="0"/>
        <pt x="163" y="424" on="1"/>
        <pt x="163" y="408" on="0"/>
        <pt x="162" y="350" on="0"/>
        <pt x="162" y="332" on="1"/>
        <pt x="162" y="329" on="0"/>
        <pt x="165" y="329" on="0"/>
        <pt x="166" y="330" on="1"/>
        <pt x="183" y="368" on="0"/>
        <pt x="254" y="437" on="0"/>
        <pt x="286" y="437" on="1"/>
      </contour>
    </TTGlyph>
    <TTGlyph name="t" xMin="20" yMin="-7" xMax="294" yMax="566">
      <contour>
        <pt x="292" y="432" on="0"/>
        <pt x="294" y="425" on="0"/>
        <pt x="294" y="421" on="1"/>
        <pt x="294" y="405" on="0"/>
        <pt x="280" y="391" on="1"/>
        <pt x="160" y="391" on="1"/>
        <pt x="160" y="129" on="1"/>
        <pt x="160" y="89" on="0"/>
        <pt x="193" y="47" on="0"/>
        <pt x="226" y="47" on="1"/>
        <pt x="245" y="47" on="0"/>
        <pt x="281" y="63" on="0"/>
        <pt x="291" y="70" on="1"/>
        <pt x="294" y="69" on="0"/>
        <pt x="294" y="63" on="1"/>
        <pt x="294" y="58" on="0"/>
        <pt x="291" y="50" on="0"/>
        <pt x="290" y="48" on="1"/>
        <pt x="273" y="29" on="0"/>
        <pt x="219" y="-7" on="0"/>
        <pt x="187" y="-7" on="1"/>
        <pt x="142" y="-7" on="0"/>
        <pt x="83" y="42" on="0"/>
        <pt x="83" y="101" on="1"/>
        <pt x="83" y="391" on="1"/>
        <pt x="25" y="391" on="1"/>
        <pt x="23" y="391" on="0"/>
        <pt x="20" y="397" on="0"/>
        <pt x="20" y="400" on="1"/>
        <pt x="20" y="403" on="0"/>
        <pt x="41" y="427" on="0"/>
        <pt x="46" y="432" on="1"/>
        <pt x="83" y="432" on="1"/>
        <pt x="83" y="495" on="1"/>
        <pt x="100" y="514" on="0"/>
        <pt x="136" y="553" on="0"/>
        <pt x="144" y="562" on="1"/>
        <pt x="148" y="566" on="0"/>
        <pt x="160" y="566" on="0"/>
        <pt x="160" y="563" on="1"/>
        <pt x="160" y="432" on="1"/>
        <pt x="289" y="432" on="1"/>
      </contour>
    </TTGlyph>
</ttFont>
